<svg xmlns="http://www.w3.org/2000/svg" version="1.1" xmlns:xlink="http://www.w3.org/1999/xlink" viewBox="0 0 200 200" width="200" height="200"><metadata><rdf:RDF xmlns:rdf="http://www.w3.org/1999/02/22-rdf-syntax-ns#" xmlns:dc="http://purl.org/dc/elements/1.1/"><rdf:Description><dc:creator>RealFaviconGenerator</dc:creator><dc:source>https://realfavicongenerator.net</dc:source></rdf:Description></rdf:RDF></metadata><rect width="200" height="200" fill="url('#gradient')"></rect><defs><linearGradient id="gradient" gradientTransform="rotate(45 0.5 0.5)"><stop offset="0%" stop-color="#df442b"></stop><stop offset="100%" stop-color="#3c0c64"></stop></linearGradient></defs><g><g fill="#0ab0bc" transform="matrix(5.505376344086022,0,0,5.505376344086022,4.0944671310404175,127.38983496799264)" stroke="#bbdcc3" stroke-width="0.2"><path d="M8.87 0L6.36-5.02L4.50-5.02L4.50 0L1.07 0L1.07-14.22L6.67-14.22Q9.20-14.22 10.63-13.10Q12.05-11.97 12.05-9.92L12.05-9.92Q12.05-8.44 11.45-7.46Q10.85-6.48 9.57-5.88L9.57-5.88L12.54-0.15L12.54 0L8.87 0ZM4.50-11.57L4.50-7.67L6.67-7.67Q7.65-7.67 8.14-8.18Q8.63-8.69 8.63-9.61Q8.63-10.53 8.13-11.05Q7.64-11.57 6.67-11.57L6.67-11.57L4.50-11.57ZM22.56-8.79L17.85-2.54L22.67-2.54L22.67 0L13.69 0L13.69-1.84L18.38-8.03L13.90-8.03L13.90-10.57L22.56-10.57L22.56-8.79ZM26.82-10.57L28.49-4.61L30.24-10.57L33.77-10.57L29.46 1.77L29.28 2.22Q28.36 4.27 26.04 4.27L26.04 4.27Q25.39 4.27 24.68 4.07L24.68 4.07L24.68 1.72L25.11 1.72Q25.80 1.72 26.17 1.52Q26.53 1.32 26.71 0.80L26.71 0.80L26.97 0.10L23.30-10.57L26.82-10.57Z"></path></g></g></svg>